<svg xmlns="http://www.w3.org/2000/svg" width="250" height="58" viewBox="0 0 250 58" fill="none"><path d="M0 46.1915V18.892H10.6081C15.9506 18.892 19.266 21.4667 19.266 25.5228C19.266 28.33 17.5108 30.3589 15.0542 31.411C18.604 32.7761 20.3968 34.9983 20.3968 38.0793C20.3968 40.5359 19.461 42.4861 17.6271 43.9675C15.7556 45.449 13.4547 46.1897 10.7638 46.1897H0V46.1915ZM4.21175 22.5581V29.8902H10.295C13.571 29.8902 15.2081 28.6807 15.2081 26.2241C15.2081 23.7676 13.571 22.5581 10.295 22.5581H4.21175ZM4.21175 33.5562V42.5254H10.3344C14.0398 42.5254 16.1063 41.0046 16.1063 38.0399C16.1063 35.0752 14.0398 33.5544 10.3344 33.5544H4.21175V33.5562Z" fill="white"></path><path d="M42.354 37.3779H27.026C27.1817 40.849 29.5219 43.2679 32.916 43.2679C35.8414 43.2679 37.4015 41.8634 38.688 39.2512L41.7689 41.0833C39.9368 44.8657 36.9721 46.739 32.7997 46.739C30.1088 46.739 27.8079 45.7639 25.897 43.853C23.9862 41.9422 23.0504 39.4856 23.0504 36.5209C23.0504 33.5562 24.0255 31.0997 25.9364 29.1888C27.8473 27.2779 30.1875 26.3028 32.9948 26.3028C35.802 26.3028 38.026 27.1992 39.7811 28.9938C41.497 30.8259 42.3558 33.1286 42.3558 35.9752V37.3797L42.354 37.3779ZM29.2106 30.8259C28.1568 31.7223 27.4161 32.8924 27.026 34.3363H38.5699C38.4142 32.8155 37.7898 31.6454 36.6984 30.7865C34.5138 29.0707 31.3165 29.0313 29.2106 30.8259Z" fill="white"></path><path d="M53.6222 34.6083C58.029 35.5047 60.1349 37.2992 60.1349 40.4589C60.1349 44.0463 57.2883 46.7372 52.6471 46.7372C48.3173 46.7372 45.3937 44.32 44.1055 41.0046L47.3422 38.9775C48.3173 41.6291 50.1888 43.3449 52.6847 43.3449C54.7512 43.3449 56.3508 42.2535 56.3508 40.5752C56.3508 39.0151 55.025 38.1956 51.7883 37.573C47.3815 36.6766 45.1969 34.7264 45.1969 31.7223C45.1969 30.0459 45.8589 28.7201 47.2241 27.745C48.5892 26.7698 50.1888 26.3011 52.0996 26.3011C56.1164 26.3011 58.4566 27.8613 59.8611 31.0979L56.9358 32.8137C56.0394 30.5128 54.4399 29.3427 52.1766 29.3427C50.2657 29.3427 48.7843 30.2391 48.7843 31.5273C48.7843 33.0875 50.3838 33.9839 53.6204 34.6083H53.6222Z" fill="white"></path><path d="M61.6468 30.0458V26.8486H64.7671V21.6223H68.7445V26.8486H73.0743V30.0458H68.7445V40.3033C68.7445 42.2141 69.6409 43.1499 71.3961 43.1499C71.8255 43.1499 72.3318 43.0711 72.8399 42.9155L73.1906 46.2702C72.3336 46.5815 71.3585 46.739 70.3047 46.739C67.0287 46.739 64.7671 45.1019 64.7671 41.0064V30.0476H61.6468V30.0458Z" fill="white"></path><path d="M150.34 39.5626C147.336 44.4381 144.023 46.739 138.407 46.739C134.506 46.739 131.269 45.4132 128.734 42.7616C126.16 40.1101 124.873 36.716 124.873 32.5436C124.873 28.3712 126.199 25.0558 128.85 22.3649C131.502 19.6739 134.74 18.3481 138.602 18.3481C144.023 18.3481 148.351 21.1554 150.262 25.4065L146.907 27.8237C144.957 24.0413 142.15 22.1681 138.523 22.1681C135.911 22.1681 133.726 23.1432 131.892 25.1327C130.058 27.1223 129.162 29.5789 129.162 32.5436C129.162 35.5083 130.058 37.9648 131.813 39.9526C133.569 41.9422 135.793 42.9173 138.483 42.9173C142.228 42.9173 145.114 41.0458 147.102 37.2617L150.339 39.5626H150.34Z" fill="white"></path><path d="M163.643 30.2803C163.137 30.1246 162.629 30.0459 162.122 30.0459C159.315 30.0459 157.286 32.5812 157.286 36.0128V46.1916H153.309V26.8468H157.286V30.1228C158.496 27.5876 160.328 26.3011 162.863 26.3011C163.253 26.3011 163.72 26.3798 164.305 26.4961L163.643 30.2785V30.2803Z" fill="white"></path><path d="M166.646 26.8468H170.623V38.4694C170.623 41.4341 172.144 43.0712 174.913 43.0712C176.357 43.0712 177.565 42.5255 178.54 41.4323C179.515 40.3409 179.984 38.9757 179.984 37.2975V26.845H183.961V46.1898H179.984V43.0694C178.658 45.526 176.552 46.7355 173.704 46.7355C169.648 46.7355 166.646 44.1232 166.646 39.2871V26.845V26.8468Z" fill="white"></path><path d="M187.955 23.7676V19.2821H192.478V23.7676H187.955ZM188.228 46.1916V26.8468H192.206V46.1916H188.228Z" fill="white"></path><path d="M204.451 34.6083C208.858 35.5047 210.964 37.2993 210.964 40.459C210.964 44.0463 208.117 46.7373 203.476 46.7373C199.146 46.7373 196.223 44.3201 194.934 41.0047L198.171 38.9775C199.146 41.6291 201.018 43.3449 203.514 43.3449C205.58 43.3449 207.18 42.2535 207.18 40.5753C207.18 39.0151 205.854 38.1957 202.617 37.573C198.21 36.6766 196.026 34.7264 196.026 31.7224C196.026 30.0459 196.69 28.7201 198.053 27.745C199.418 26.7699 201.018 26.3011 202.928 26.3011C206.945 26.3011 209.285 27.8613 210.69 31.0979L207.765 32.8138C206.868 30.5129 205.269 29.3427 203.007 29.3427C201.096 29.3427 199.615 30.2391 199.615 31.5274C199.615 33.0875 201.214 33.9839 204.451 34.6083Z" fill="white"></path><path d="M232.219 37.378H216.893C217.049 40.849 219.389 43.268 222.781 43.268C225.707 43.268 227.267 41.8635 228.553 39.2513L231.634 41.0834C229.8 44.8657 226.837 46.739 222.663 46.739C219.972 46.739 217.671 45.7639 215.76 43.853C213.85 41.9422 212.914 39.4856 212.914 36.5209C212.914 33.5563 213.889 31.0997 215.8 29.1888C217.711 27.278 220.051 26.3029 222.86 26.3029C225.669 26.3029 227.891 27.1993 229.646 28.9938C231.362 30.826 232.221 33.1286 232.221 35.9752V37.3798L232.219 37.378ZM219.076 30.8259C218.022 31.7223 217.281 32.8925 216.891 34.3363H228.435C228.279 32.8155 227.655 31.6454 226.564 30.7866C224.379 29.0708 221.182 29.0314 219.076 30.8259Z" fill="white"></path><path d="M243.486 34.6083C247.892 35.5047 249.998 37.2993 249.998 40.459C249.998 44.0463 247.152 46.7373 242.511 46.7373C238.181 46.7373 235.257 44.3201 233.969 41.0047L237.206 38.9775C238.181 41.6291 240.052 43.3449 242.548 43.3449C244.615 43.3449 246.214 42.2535 246.214 40.5753C246.214 39.0151 244.888 38.1957 241.652 37.573C237.245 36.6766 235.06 34.7264 235.06 31.7224C235.06 30.0459 235.724 28.7201 237.087 27.745C238.453 26.7699 240.052 26.3011 241.963 26.3011C245.98 26.3011 248.32 27.8613 249.725 31.0979L246.799 32.8138C245.903 30.5129 244.303 29.3427 242.042 29.3427C240.131 29.3427 238.649 30.2391 238.649 31.5274C238.649 33.0875 240.249 33.9839 243.486 34.6083Z" fill="white"></path><path d="M103.915 3.9899V3.8147e-06H95.067V3.9899H87.2536V7.96906H90.7998C91.9002 7.96906 92.7894 8.86902 92.7894 9.96937V11.959H106.194V9.96937C106.194 8.86902 107.083 7.96906 108.184 7.96906H111.74V3.9899H103.915ZM95.8274 9.22865H94.4533V6.71305H95.8274V9.22865ZM98.7277 9.22865H97.3536V6.71305H98.7277V9.22865ZM101.626 9.22865H100.252V6.71305H101.626V9.22865ZM104.525 9.22865H103.151V6.71305H104.525V9.22865Z" fill="#FFE000"></path><path d="M100.281 13.333H80.3849V43.955C80.3849 43.955 80.46 48.2008 85.527 50.6198C90.5922 53.0388 99.4934 57.3489 99.4934 57.3489C99.4934 57.3489 108.393 53.0388 113.46 50.6198C118.525 48.2008 118.602 43.955 118.602 43.955V13.333H100.282H100.281Z" fill="#EE2E23"></path><path d="M87.0103 41.7811V37.0004L100.376 18.892H105.548V37.0004H108.332V41.7811H105.548V46.3275H100.376V41.7811H87.0103ZM100.376 26.183L92.4977 37.0004H100.376V26.183Z" fill="white"></path></svg>